<?xml version="1.0" encoding="iso-8859-1"?>
<!-- Uploaded to: SVG Repo, www.svgrepo.com, Generator: SVG Repo Mixer Tools -->
<svg height="800px" width="800px" version="1.1" id="Layer_1" xmlns="http://www.w3.org/2000/svg" xmlns:xlink="http://www.w3.org/1999/xlink" 
	 viewBox="0 0 512 512" xml:space="preserve">
<path style="fill:#EB86BF;" d="M512,256.006C512,397.402,397.394,512.004,256.004,512C114.606,512.004,0,397.402,0,256.006
	C-0.007,114.61,114.606,0,256.004,0C397.394,0,512,114.614,512,256.006z"/>
<path style="fill:#D670AD;" d="M481.909,376.464c0,0-125.462-125.46-125.465-125.465L193.627,88.388
	c-2.762-2.755-7.235-2.755-9.998,0l-28.073,28.034c-1.326,1.326-2.071,3.124-2.071,5.002c0,1.878,0.746,3.677,2.071,5.002
	c0,0,1.628,1.626,1.632,1.632c0,0,127.3,127.297,127.305,127.305l0.719,0.718L155.557,385.571c-1.326,1.326-2.071,3.123-2.071,5.002
	c0,1.877,0.746,3.677,2.071,5.002c0,0,1.628,1.626,1.632,1.632c0,0,26.108,26.106,26.113,26.114c0,0,1.629,1.627,1.632,1.632
	c0,0,86.497,86.495,86.502,86.502l0.038,0.038C362.742,506.051,441.107,452.828,481.909,376.464z"/>
<path style="fill:#F4F6F9;" d="M356.443,250.997L193.627,88.388c-2.762-2.755-7.235-2.755-9.997,0l-28.073,28.034
	c-1.326,1.326-2.071,3.124-2.071,5.002c0,1.878,0.746,3.677,2.071,5.002l129.738,129.571L155.557,385.571
	c-1.326,1.326-2.071,3.124-2.071,5.002s0.746,3.677,2.071,5.002l28.073,28.034c1.381,1.377,3.189,2.068,4.998,2.068
	s3.618-0.69,4.998-2.068l162.816-162.608c1.326-1.326,2.071-3.124,2.071-5.002C358.514,254.122,357.769,252.322,356.443,250.997z
	 M188.628,408.618l-18.068-18.045l129.738-129.571c1.326-1.326,2.071-3.124,2.071-5.002c0-1.878-0.746-3.677-2.071-5.002
	L170.56,121.425l18.068-18.044L341.44,255.999L188.628,408.618z"/>
</svg>