<svg width="24" height="24" viewBox="0 0 24 24" fill="none" xmlns="http://www.w3.org/2000/svg">
<path d="M7 2C6.20435 2 5.44129 2.31607 4.87868 2.87868C4.31607 3.44129 4 4.20435 4 5V19C4 19.7957 4.31607 20.5587 4.87868 21.1213C5.44129 21.6839 6.20435 22 7 22H17C17.7957 22 18.5587 21.6839 19.1213 21.1213C19.6839 20.5587 20 19.7957 20 19V18C20 17.4477 19.5523 17 19 17C18.4477 17 18 17.4477 18 18V19C18 19.2652 17.8946 19.5196 17.7071 19.7071C17.5196 19.8946 17.2652 20 17 20H7C6.73478 20 6.48043 19.8946 6.29289 19.7071C6.10536 19.5196 6 19.2652 6 19V5C6 4.73478 6.10536 4.48043 6.29289 4.29289C6.48043 4.10536 6.73478 4 7 4H17C17.2652 4 17.5196 4.10536 17.7071 4.29289C17.8946 4.48043 18 4.73478 18 5V6C18 6.55228 18.4477 7 19 7C19.5523 7 20 6.55228 20 6V5C20 4.20435 19.6839 3.44129 19.1213 2.87868C18.5587 2.31607 17.7956 2 17 2H7Z" fill="#0A84FF"/>
<path d="M16.7071 8.29289C16.3166 7.90237 15.6834 7.90237 15.2929 8.29289C14.9024 8.68342 14.9024 9.31658 15.2929 9.70711L16.5858 11H12C11.4477 11 11 11.4477 11 12C11 12.5523 11.4477 13 12 13H16.5858L15.2929 14.2929C14.9024 14.6834 14.9024 15.3166 15.2929 15.7071C15.6834 16.0976 16.3166 16.0976 16.7071 15.7071L19.7071 12.7071C20.0976 12.3166 20.0976 11.6834 19.7071 11.2929L16.7071 8.29289Z" fill="#0A84FF"/>
</svg>
